<svg xmlns="http://www.w3.org/2000/svg" width="240" height="480" viewBox="0 0 240 480">
  <defs>
    <linearGradient id="bg" x1="0" y1="0" x2="0" y2="1"><stop offset="0" stop-color="#1a1a2e"/><stop offset="1" stop-color="#0f0f11"/></linearGradient>
    <linearGradient id="c1" x1="0" y1="0" x2="1" y2="1"><stop offset="0" stop-color="#6c63ff"/><stop offset="1" stop-color="#06b6d4"/></linearGradient>
    <linearGradient id="c2" x1="0" y1="0" x2="1" y2="1"><stop offset="0" stop-color="#f43f5e"/><stop offset="1" stop-color="#6c63ff"/></linearGradient>
    <linearGradient id="c3" x1="0" y1="0" x2="1" y2="1"><stop offset="0" stop-color="#06b6d4"/><stop offset="1" stop-color="#10b981"/></linearGradient>
  </defs>
  <!-- Screen bg -->
  <rect width="240" height="480" fill="url(#bg)"/>
  <!-- Status bar -->
  <text x="20" y="24" fill="#71717a" font-family="sans-serif" font-size="11" font-weight="600">9:41</text>
  <text x="200" y="24" fill="#71717a" font-family="sans-serif" font-size="11">🔋 ██</text>
  <!-- Card 1 -->
  <rect x="16" y="48" width="208" height="80" rx="10" fill="#252540" stroke="#2f2f4a" stroke-width="1"/>
  <rect x="28" y="60" width="48" height="56" rx="8" fill="url(#c1)" opacity=".2"/>
  <text x="38" y="96" fill="#fff" font-family="sans-serif" font-size="22" text-anchor="middle">✨</text>
  <text x="88" y="82" fill="#e4e4e7" font-family="sans-serif" font-size="14" font-weight="700">Vintage Lederjacke</text>
  <text x="88" y="100" fill="#71717a" font-family="sans-serif" font-size="11">Gr. M · KI Generiert</text>
  <rect x="88" y="106" width="60" height="16" rx="4" fill="rgba(108,99,255,.2)"/>
  <text x="93" y="117" fill="#6c63ff" font-family="sans-serif" font-size="9" font-weight="700">VIRTUAL TRY-ON</text>
  <!-- Card 2 -->
  <rect x="16" y="140" width="208" height="80" rx="10" fill="#252540" stroke="#2f2f4a" stroke-width="1"/>
  <rect x="28" y="152" width="48" height="56" rx="8" fill="url(#c2)" opacity=".2"/>
  <text x="38" y="188" fill="#fff" font-family="sans-serif" font-size="22" text-anchor="middle">✨</text>
  <text x="88" y="174" fill="#e4e4e7" font-family="sans-serif" font-size="14" font-weight="700">Cargo Hose Beige</text>
  <text x="88" y="192" fill="#71717a" font-family="sans-serif" font-size="11">Gr. L · KI Generiert</text>
  <rect x="88" y="198" width="60" height="16" rx="4" fill="rgba(108,99,255,.2)"/>
  <text x="93" y="209" fill="#6c63ff" font-family="sans-serif" font-size="9" font-weight="700">VIRTUAL TRY-ON</text>
  <!-- Card 3 -->
  <rect x="16" y="232" width="208" height="80" rx="10" fill="#252540" stroke="#2f2f4a" stroke-width="1"/>
  <rect x="28" y="244" width="48" height="56" rx="8" fill="url(#c3)" opacity=".2"/>
  <text x="38" y="280" fill="#fff" font-family="sans-serif" font-size="22" text-anchor="middle">✨</text>
  <text x="88" y="266" fill="#e4e4e7" font-family="sans-serif" font-size="14" font-weight="700">Sneaker White</text>
  <text x="88" y="284" fill="#71717a" font-family="sans-serif" font-size="11">Gr. 42 · KI Generiert</text>
  <rect x="88" y="290" width="60" height="16" rx="4" fill="rgba(108,99,255,.2)"/>
  <text x="93" y="301" fill="#6c63ff" font-family="sans-serif" font-size="9" font-weight="700">VIRTUAL TRY-ON</text>
  <!-- Tab bar -->
  <rect x="0" y="430" width="240" height="50" fill="#1a1a2e" stroke="#2f2f4a" stroke-width="1"/>
  <text x="40" y="458" fill="#6c63ff" font-family="sans-serif" font-size="18" text-anchor="middle">📸</text>
  <text x="120" y="458" fill="#71717a" font-family="sans-serif" font-size="18" text-anchor="middle">🔄</text>
  <text x="200" y="458" fill="#71717a" font-family="sans-serif" font-size="18" text-anchor="middle">📦</text>
</svg>
